SourceHebrewSans_1.ufo
<glyph name="E" format="2">
	<unicode hex="0045"/>
	<advance width="556"/>
	<outline>
		<contour>
			<point x="72" y="0" type="line"/>
			<point x="502" y="0" type="line"/>
			<point x="502" y="144" type="line"/>
			<point x="244" y="144" type="line"/>
			<point x="244" y="260" type="line"/>
			<point x="456" y="260" type="line"/>
			<point x="456" y="404" type="line"/>
			<point x="244" y="404" type="line"/>
			<point x="244" y="506" type="line"/>
			<point x="492" y="506" type="line"/>
			<point x="492" y="650" type="line"/>
			<point x="72" y="650" type="line"/>
		</contour>
	</outline>
	<anchor name="baseLC" x="310" y="0"/>
	<anchor name="aboveUC" x="290" y="670"/>
	<anchor name="ogonekUC" x="396" y="0"/>
	<anchor name="belowLC" x="290" y="-20"/>
</glyph>
<glyph name="lslash" format="2">
	<unicode hex="0142"/>
	<advance width="318"/>
	<outline>
		<contour>
			<point x="30" y="232" type="line"/>
			<point x="78" y="260" type="line"/>
			<point x="209" y="320" type="line"/>
			<point x="346" y="394" type="line"/>
			<point x="288" y="500" type="line"/>
			<point x="209" y="456" type="line"/>
			<point x="78" y="396" type="line"/>
			<point x="-28" y="338" type="line"/>
		</contour>
		<component base="l" xOffset="12"/>
	</outline>
	<anchor name="aboveUC" x="159" y="730"/>
	<anchor name="belowLC" x="159" y="-20"/>
</glyph>
<glyph name="ismall" format="2">
	<unicode hex="026A"/>
	<advance width="416"/>
	<outline>
		<contour>
			<point x="54" y="0" type="line"/>
			<point x="362" y="0" type="line"/>
			<point x="362" y="134" type="line"/>
			<point x="294" y="134" type="line"/>
			<point x="294" y="366" type="line"/>
			<point x="362" y="366" type="line"/>
			<point x="362" y="500" type="line"/>
			<point x="54" y="500" type="line"/>
			<point x="54" y="366" type="line"/>
			<point x="122" y="366" type="line"/>
			<point x="122" y="134" type="line"/>
			<point x="54" y="134" type="line"/>
		</contour>
	</outline>
	<anchor name="aboveLC" x="208" y="520"/>
	<anchor name="belowLC" x="208" y="-20"/>
	<anchor name="ogonekUC" x="190" y="0"/>
</glyph>
<glyph name="ts" format="2">
	<unicode hex="02A6"/>
	<advance width="688"/>
	<outline>
		<contour>
			<point x="264" y="-12" type="curve" smooth="yes"/>
			<point x="319" y="-12"/>
			<point x="356" y="-2"/>
			<point x="382" y="6" type="curve"/>
			<point x="356" y="130" type="line"/>
			<point x="344" y="126"/>
			<point x="328" y="122"/>
			<point x="312" y="122" type="curve" smooth="yes"/>
			<point x="280" y="122"/>
			<point x="252" y="140"/>
			<point x="252" y="195" type="curve" smooth="yes"/>
			<point x="252" y="366" type="line"/>
			<point x="366" y="366" type="line"/>
			<point x="366" y="500" type="line"/>
			<point x="252" y="500" type="line"/>
			<point x="252" y="630" type="line"/>
			<point x="110" y="630" type="line"/>
			<point x="90" y="500" type="line"/>
			<point x="14" y="494" type="line"/>
			<point x="14" y="366" type="line"/>
			<point x="80" y="366" type="line"/>
			<point x="80" y="192" type="line" smooth="yes"/>
			<point x="80" y="70"/>
			<point x="134" y="-12"/>
		</contour>
		<component base="s" xOffset="360"/>
	</outline>
	<anchor name="aboveUC" x="344" y="730"/>
	<anchor name="belowLC" x="344" y="-20"/>
</glyph>
<glyph name="heHatafPatah" format="2">
	<unicode hex="05B2"/>
	<outline>
		<contour>
			<point x="20" y="-80" type="line"/>
			<point x="-141" y="-80" type="line"/>
			<point x="-141" y="-132" type="line"/>
			<point x="20" y="-132" type="line"/>
		</contour>
		<contour>
			<point x="114" y="-73" type="curve" smooth="yes"/>
			<point x="91" y="-73"/>
			<point x="70" y="-91"/>
			<point x="70" y="-117" type="curve" smooth="yes"/>
			<point x="70" y="-144"/>
			<point x="91" y="-161"/>
			<point x="114" y="-161" type="curve" smooth="yes"/>
			<point x="137" y="-161"/>
			<point x="158" y="-145"/>
			<point x="158" y="-117" type="curve" smooth="yes"/>
			<point x="158" y="-91"/>
			<point x="137" y="-73"/>
		</contour>
		<contour>
			<point x="114" y="-199" type="curve" smooth="yes"/>
			<point x="91" y="-199"/>
			<point x="70" y="-217"/>
			<point x="70" y="-243" type="curve" smooth="yes"/>
			<point x="70" y="-270"/>
			<point x="91" y="-287"/>
			<point x="114" y="-287" type="curve" smooth="yes"/>
			<point x="137" y="-287"/>
			<point x="158" y="-271"/>
			<point x="158" y="-243" type="curve" smooth="yes"/>
			<point x="158" y="-217"/>
			<point x="137" y="-199"/>
		</contour>
	</outline>
	<anchor name="_belowPrimaryHE" x="0" y="-30"/>
	<anchor name="_belowLeftHE" x="-140" y="-30"/>
	<anchor name="belowPrimaryHE" x="-210" y="-30"/>
	<anchor name="_belowSecondaryHE" x="50" y="-30"/>
</glyph>
<glyph name="heTsere" format="2">
	<unicode hex="05B5"/>
	<outline>
		<contour>
			<point x="-68" y="-73" type="curve" smooth="yes"/>
			<point x="-91" y="-73"/>
			<point x="-112" y="-91"/>
			<point x="-112" y="-117" type="curve" smooth="yes"/>
			<point x="-112" y="-144"/>
			<point x="-91" y="-161"/>
			<point x="-68" y="-161" type="curve" smooth="yes"/>
			<point x="-45" y="-161"/>
			<point x="-24" y="-145"/>
			<point x="-24" y="-117" type="curve" smooth="yes"/>
			<point x="-24" y="-91"/>
			<point x="-45" y="-73"/>
		</contour>
		<contour>
			<point x="66" y="-73" type="curve" smooth="yes"/>
			<point x="43" y="-73"/>
			<point x="22" y="-91"/>
			<point x="22" y="-117" type="curve" smooth="yes"/>
			<point x="22" y="-144"/>
			<point x="43" y="-161"/>
			<point x="66" y="-161" type="curve" smooth="yes"/>
			<point x="89" y="-161"/>
			<point x="110" y="-145"/>
			<point x="110" y="-117" type="curve" smooth="yes"/>
			<point x="110" y="-91"/>
			<point x="89" y="-73"/>
		</contour>
	</outline>
	<anchor name="_belowPrimaryHE" x="0" y="-30"/>
	<anchor name="_belowLeftHE" x="-100" y="-30"/>
	<anchor name="_belowRightHE" x="100" y="-30"/>
	<anchor name="belowPrimaryHE" x="-180" y="-30"/>
	<anchor name="_belowSecondaryHE" x="0" y="-30"/>
</glyph>
<glyph name="heHolam" format="2">
	<unicode hex="05B9"/>
	<outline>
		<contour>
			<point x="0" y="656" type="curve" smooth="yes"/>
			<point x="-23" y="656"/>
			<point x="-44" y="638"/>
			<point x="-44" y="612" type="curve" smooth="yes"/>
			<point x="-44" y="585"/>
			<point x="-23" y="568"/>
			<point x="0" y="568" type="curve" smooth="yes"/>
			<point x="23" y="568"/>
			<point x="44" y="584"/>
			<point x="44" y="612" type="curve" smooth="yes"/>
			<point x="44" y="638"/>
			<point x="23" y="656"/>
		</contour>
	</outline>
	<anchor name="_aboveLeftHE" x="0" y="530"/>
</glyph>
<glyph name="heMaqaf" format="2">
	<unicode hex="05BE"/>
	<advance width="322"/>
	<outline>
		<contour>
			<point x="30" y="347" type="line"/>
			<point x="292" y="347" type="line"/>
			<point x="292" y="499" type="line"/>
			<point x="30" y="499" type="line"/>
		</contour>
	</outline>
</glyph>
<glyph name="heRafe" format="2">
	<unicode hex="05BF"/>
	<outline>
		<contour>
			<point x="111" y="632" type="line"/>
			<point x="-111" y="632" type="line"/>
			<point x="-111" y="580" type="line"/>
			<point x="111" y="580" type="line"/>
		</contour>
	</outline>
	<anchor name="_aboveHE" x="0" y="525"/>
</glyph>
<glyph name="heSofPasuq" format="2">
	<unicode hex="05C3"/>
	<advance width="319"/>
	<outline>
		<contour>
			<point x="159" y="312" type="curve" smooth="yes"/>
			<point x="213" y="312"/>
			<point x="249" y="351"/>
			<point x="249" y="403" type="curve" smooth="yes"/>
			<point x="248" y="458"/>
			<point x="213" y="495"/>
			<point x="160" y="495" type="curve" smooth="yes"/>
			<point x="107" y="495"/>
			<point x="70" y="457"/>
			<point x="70" y="403" type="curve" smooth="yes"/>
			<point x="70" y="351"/>
			<point x="107" y="312"/>
		</contour>
		<contour>
			<point x="159" y="-11" type="curve" smooth="yes"/>
			<point x="213" y="-11"/>
			<point x="249" y="28"/>
			<point x="249" y="80" type="curve" smooth="yes"/>
			<point x="248" y="135"/>
			<point x="213" y="172"/>
			<point x="160" y="172" type="curve" smooth="yes"/>
			<point x="107" y="172"/>
			<point x="70" y="134"/>
			<point x="70" y="80" type="curve" smooth="yes"/>
			<point x="70" y="28"/>
			<point x="107" y="-11"/>
		</contour>
	</outline>
</glyph>
<glyph name="heAlef" format="2">
	<unicode hex="05D0"/>
	<advance width="688"/>
	<outline>
		<contour>
			<point x="524" y="220" type="line"/>
			<point x="618" y="300"/>
			<point x="644" y="351"/>
			<point x="644" y="414" type="curve" smooth="yes"/>
			<point x="644" y="522"/>
			<point x="590" y="568"/>
			<point x="466" y="568" type="curve" smooth="yes"/>
			<point x="374" y="568" type="line"/>
			<point x="374" y="396" type="line"/>
			<point x="402" y="396" type="line" smooth="yes"/>
			<point x="472" y="396"/>
			<point x="496" y="379"/>
			<point x="496" y="344" type="curve" smooth="yes"/>
			<point x="496" y="323"/>
			<point x="480" y="306"/>
			<point x="396" y="266" type="curve"/>
		</contour>
		<contour>
			<point x="60" y="0" type="curve"/>
			<point x="212" y="0" type="line"/>
			<point x="210" y="29"/>
			<point x="208" y="57"/>
			<point x="208" y="82" type="curve" smooth="yes"/>
			<point x="208" y="212"/>
			<point x="229" y="298"/>
			<point x="276" y="380" type="curve"/>
			<point x="144" y="408" type="line"/>
			<point x="88" y="328"/>
			<point x="58" y="236"/>
			<point x="58" y="84" type="curve" smooth="yes"/>
			<point x="58" y="56"/>
			<point x="58" y="29"/>
		</contour>
		<contour>
			<point x="526" y="-12" type="curve"/>
			<point x="656" y="80" type="line"/>
			<point x="489" y="223"/>
			<point x="296" y="419"/>
			<point x="186" y="570" type="curve"/>
			<point x="56" y="478" type="line"/>
			<point x="168" y="321"/>
			<point x="363" y="125"/>
		</contour>
	</outline>
	<anchor name="aboveHE" x="265" y="530"/>
	<anchor name="belowPrimaryHE" x="300" y="-30"/>
	<anchor name="aboveLeftHE" x="-5" y="530"/>
	<anchor name="centerHE" x="260" y="90"/>
	<guideline x="88" y="472" angle="90" identifier="Xn6NvC9d08"/>
</glyph>
<glyph name="heBet" format="2">
	<unicode hex="05D1"/>
	<advance width="610"/>
	<outline>
		<contour>
			<point x="576" y="0" type="line"/>
			<point x="576" y="172" type="line"/>
			<point x="54" y="172" type="line"/>
			<point x="54" y="0" type="line"/>
		</contour>
		<contour>
			<point x="514" y="0" type="line"/>
			<point x="526" y="102"/>
			<point x="534" y="190"/>
			<point x="534" y="302" type="curve" smooth="yes"/>
			<point x="534" y="486"/>
			<point x="438" y="568"/>
			<point x="278" y="568" type="curve" smooth="yes"/>
			<point x="74" y="568" type="line"/>
			<point x="74" y="396" type="line"/>
			<point x="198" y="396" type="line" smooth="yes"/>
			<point x="332" y="396"/>
			<point x="386" y="344"/>
			<point x="386" y="200" type="curve" smooth="yes"/>
			<point x="386" y="190"/>
			<point x="385" y="182"/>
			<point x="384" y="172" type="curve"/>
		</contour>
	</outline>
	<anchor name="aboveHE" x="230" y="530"/>
	<anchor name="belowPrimaryHE" x="205" y="-30"/>
	<anchor name="centerHE" x="190" y="250"/>
	<anchor name="aboveLeftHE" x="5" y="530"/>
</glyph>
<glyph name="heDalet" format="2">
	<unicode hex="05D3"/>
	<advance width="562"/>
	<outline>
		<contour>
			<point x="14" y="396" type="line"/>
			<point x="528" y="396" type="line"/>
			<point x="528" y="568" type="line"/>
			<point x="14" y="568" type="line"/>
		</contour>
		<contour>
			<point x="284" y="0" type="line"/>
			<point x="432" y="0" type="line"/>
			<point x="432" y="396" type="line"/>
			<point x="308" y="396" type="line"/>
			<point x="294" y="352"/>
			<point x="284" y="306"/>
			<point x="284" y="246" type="curve" smooth="yes"/>
		</contour>
	</outline>
	<anchor name="aboveHE" x="230" y="530"/>
	<anchor name="belowSecondaryHE" x="290" y="-30"/>
	<anchor name="centerHE" x="125" y="190"/>
	<anchor name="aboveLeftHE" x="-10" y="530"/>
</glyph>
<glyph name="heHe" format="2">
	<unicode hex="05D4"/>
	<advance width="702"/>
	<outline>
		<contour>
			<point x="482" y="0" type="line"/>
			<point x="630" y="0" type="line"/>
			<point x="630" y="352" type="line" smooth="yes"/>
			<point x="630" y="508"/>
			<point x="546" y="568"/>
			<point x="424" y="568" type="curve" smooth="yes"/>
			<point x="54" y="568" type="line"/>
			<point x="54" y="396" type="line"/>
			<point x="352" y="396" type="line" smooth="yes"/>
			<point x="432" y="396"/>
			<point x="482" y="368"/>
			<point x="482" y="270" type="curve" smooth="yes"/>
		</contour>
		<contour>
			<point x="104" y="0" type="line"/>
			<point x="252" y="0" type="line"/>
			<point x="252" y="316" type="line"/>
			<point x="128" y="316" type="line"/>
			<point x="114" y="272"/>
			<point x="104" y="226"/>
			<point x="104" y="166" type="curve" smooth="yes"/>
		</contour>
	</outline>
	<anchor name="aboveHE" x="270" y="530"/>
	<anchor name="belowPrimaryHE" x="280" y="-30"/>
	<anchor name="centerHE" x="280" y="190"/>
	<anchor name="aboveLeftHE" x="0" y="530"/>
</glyph>
<glyph name="heVav" format="2">
	<unicode hex="05D5"/>
	<advance width="356"/>
	<outline>
		<contour>
			<point x="136" y="0" type="line"/>
			<point x="284" y="0" type="line"/>
			<point x="284" y="372" type="line" smooth="yes"/>
			<point x="284" y="514"/>
			<point x="208" y="568"/>
			<point x="98" y="568" type="curve" smooth="yes"/>
			<point x="14" y="568" type="line"/>
			<point x="14" y="396" type="line"/>
			<point x="26" y="396" type="line" smooth="yes"/>
			<point x="94" y="396"/>
			<point x="136" y="372"/>
			<point x="136" y="290" type="curve" smooth="yes"/>
		</contour>
	</outline>
	<anchor name="aboveHE" x="145" y="530"/>
	<anchor name="belowSecondaryHE" x="210" y="-30"/>
	<anchor name="centerHE" x="70" y="190"/>
	<anchor name="holamHE" x="-10" y="530"/>
	<anchor name="aboveLeftHE" x="145" y="500"/>
</glyph>
<glyph name="heHet" format="2">
	<unicode hex="05D7"/>
	<advance width="692"/>
	<outline>
		<contour>
			<point x="472" y="0" type="line"/>
			<point x="620" y="0" type="line"/>
			<point x="620" y="352" type="line" smooth="yes"/>
			<point x="620" y="508"/>
			<point x="536" y="568"/>
			<point x="414" y="568" type="curve" smooth="yes"/>
			<point x="54" y="568" type="line"/>
			<point x="54" y="396" type="line"/>
			<point x="342" y="396" type="line" smooth="yes"/>
			<point x="422" y="396"/>
			<point x="472" y="368"/>
			<point x="472" y="270" type="curve" smooth="yes"/>
		</contour>
		<contour>
			<point x="104" y="0" type="line"/>
			<point x="252" y="0" type="line"/>
			<point x="252" y="396" type="line"/>
			<point x="128" y="396" type="line"/>
			<point x="114" y="352"/>
			<point x="104" y="306"/>
			<point x="104" y="246" type="curve" smooth="yes"/>
		</contour>
	</outline>
	<anchor name="aboveHE" x="280" y="530"/>
	<anchor name="belowPrimaryHE" x="290" y="-30"/>
	<anchor name="centerHE" x="290" y="190"/>
	<anchor name="aboveLeftHE" x="-5" y="530"/>
</glyph>
<glyph name="heTet" format="2">
	<unicode hex="05D8"/>
	<advance width="646"/>
	<outline>
		<contour>
			<point x="338" y="-12" type="curve" smooth="yes"/>
			<point x="502" y="-12"/>
			<point x="618" y="136"/>
			<point x="618" y="364" type="curve" smooth="yes"/>
			<point x="618" y="506"/>
			<point x="569" y="568"/>
			<point x="420" y="568" type="curve" smooth="yes"/>
			<point x="338" y="568" type="line"/>
			<point x="338" y="396" type="line"/>
			<point x="376" y="396" type="line" smooth="yes"/>
			<point x="446" y="396"/>
			<point x="470" y="372"/>
			<point x="470" y="324" type="curve" smooth="yes"/>
			<point x="470" y="226"/>
			<point x="420" y="158"/>
			<point x="356" y="158" type="curve" smooth="yes"/>
			<point x="286" y="158"/>
			<point x="244" y="197"/>
			<point x="244" y="328" type="curve" smooth="yes"/>
			<point x="244" y="392" type="line" smooth="yes"/>
			<point x="244" y="528"/>
			<point x="178" y="568"/>
			<point x="68" y="568" type="curve" smooth="yes"/>
			<point x="24" y="568" type="line"/>
			<point x="24" y="396" type="line"/>
			<point x="36" y="396" type="line" smooth="yes"/>
			<point x="80" y="396"/>
			<point x="96" y="378"/>
			<point x="96" y="320" type="curve" smooth="yes"/>
			<point x="96" y="264" type="line" smooth="yes"/>
			<point x="96" y="70"/>
			<point x="196" y="-12"/>
		</contour>
	</outline>
	<anchor name="aboveHE" x="310" y="530"/>
	<anchor name="belowPrimaryHE" x="320" y="-30"/>
	<anchor name="centerHE" x="310" y="260"/>
	<anchor name="aboveLeftHE" x="15" y="530"/>
</glyph>
<glyph name="heKafFin" format="2">
	<unicode hex="05DA"/>
	<advance width="562"/>
	<outline>
		<contour>
			<point x="342" y="-200" type="line"/>
			<point x="490" y="-200" type="line"/>
			<point x="490" y="352" type="line" smooth="yes"/>
			<point x="490" y="508"/>
			<point x="406" y="568"/>
			<point x="284" y="568" type="curve" smooth="yes"/>
			<point x="14" y="568" type="line"/>
			<point x="14" y="396" type="line"/>
			<point x="212" y="396" type="line" smooth="yes"/>
			<point x="292" y="396"/>
			<point x="342" y="368"/>
			<point x="342" y="270" type="curve" smooth="yes"/>
		</contour>
	</outline>
	<anchor name="aboveHE" x="210" y="530"/>
	<anchor name="centerSecondaryHE" x="160" y="300"/>
	<anchor name="aboveLeftHE" x="-10" y="530"/>
	<anchor name="belowPrimaryHE" x="160" y="-30"/>
</glyph>
<glyph name="heKaf" format="2">
	<unicode hex="05DB"/>
	<advance width="588"/>
	<outline>
		<contour>
			<point x="54" y="0" type="line"/>
			<point x="504" y="0" type="line"/>
			<point x="516" y="102"/>
			<point x="524" y="190"/>
			<point x="524" y="302" type="curve" smooth="yes"/>
			<point x="524" y="486"/>
			<point x="446" y="568"/>
			<point x="288" y="568" type="curve" smooth="yes"/>
			<point x="72" y="568" type="line"/>
			<point x="72" y="396" type="line"/>
			<point x="208" y="396" type="line" smooth="yes"/>
			<point x="338" y="396"/>
			<point x="376" y="344"/>
			<point x="376" y="200" type="curve" smooth="yes"/>
			<point x="376" y="190"/>
			<point x="375" y="182"/>
			<point x="374" y="172" type="curve"/>
			<point x="54" y="172" type="line"/>
		</contour>
	</outline>
	<anchor name="aboveHE" x="230" y="530"/>
	<anchor name="belowPrimaryHE" x="235" y="-30"/>
	<anchor name="centerHE" x="195" y="250"/>
	<anchor name="aboveLeftHE" x="15" y="530"/>
</glyph>
<glyph name="heLamed" format="2">
	<unicode hex="05DC"/>
	<advance width="508"/>
	<outline>
		<contour>
			<point x="118" y="-12" type="line"/>
			<point x="388" y="93"/>
			<point x="470" y="264"/>
			<point x="470" y="428" type="curve" smooth="yes"/>
			<point x="470" y="526"/>
			<point x="418" y="568"/>
			<point x="258" y="568" type="curve" smooth="yes"/>
			<point x="172" y="568" type="line"/>
			<point x="172" y="742" type="line"/>
			<point x="24" y="742" type="line"/>
			<point x="24" y="396" type="line"/>
			<point x="222" y="396" type="line" smooth="yes"/>
			<point x="280" y="396"/>
			<point x="302" y="386"/>
			<point x="302" y="346" type="curve" smooth="yes"/>
			<point x="302" y="281"/>
			<point x="227" y="201"/>
			<point x="62" y="164" type="curve"/>
		</contour>
	</outline>
	<anchor name="aboveHE" x="255" y="530"/>
	<anchor name="belowLeftHE" x="120" y="-30"/>
	<anchor name="centerHE" x="175" y="275"/>
	<anchor name="aboveLeftHE" x="-75" y="530"/>
</glyph>
<glyph name="heMemFin" format="2">
	<unicode hex="05DD"/>
	<advance width="702"/>
	<outline>
		<contour>
			<point x="168" y="0" type="line"/>
			<point x="630" y="0" type="line"/>
			<point x="630" y="352" type="line" smooth="yes"/>
			<point x="630" y="508"/>
			<point x="546" y="568"/>
			<point x="424" y="568" type="curve" smooth="yes"/>
			<point x="44" y="568" type="line"/>
			<point x="44" y="396" type="line"/>
			<point x="352" y="396" type="line" smooth="yes"/>
			<point x="432" y="396"/>
			<point x="482" y="368"/>
			<point x="482" y="270" type="curve" smooth="yes"/>
			<point x="482" y="172" type="line"/>
			<point x="168" y="172" type="line"/>
		</contour>
		<contour>
			<point x="104" y="0" type="line"/>
			<point x="252" y="0" type="line"/>
			<point x="252" y="396" type="line"/>
			<point x="128" y="396" type="line"/>
			<point x="114" y="352"/>
			<point x="104" y="306"/>
			<point x="104" y="246" type="curve" smooth="yes"/>
		</contour>
	</outline>
	<anchor name="aboveHE" x="280" y="530"/>
	<anchor name="belowPrimaryHE" x="290" y="-30"/>
	<anchor name="centerHE" x="290" y="250"/>
	<anchor name="aboveLeftHE" x="-5" y="530"/>
</glyph>
<glyph name="heNun" format="2">
	<unicode hex="05E0"/>
	<advance width="472"/>
	<outline>
		<contour>
			<point x="54" y="0" type="line"/>
			<point x="390" y="0" type="line"/>
			<point x="390" y="372" type="line" smooth="yes"/>
			<point x="390" y="514"/>
			<point x="314" y="568"/>
			<point x="204" y="568" type="curve" smooth="yes"/>
			<point x="92" y="568" type="line"/>
			<point x="92" y="396" type="line"/>
			<point x="132" y="396" type="line" smooth="yes"/>
			<point x="200" y="396"/>
			<point x="242" y="372"/>
			<point x="242" y="290" type="curve" smooth="yes"/>
			<point x="242" y="172" type="line"/>
			<point x="54" y="172" type="line"/>
		</contour>
	</outline>
	<anchor name="aboveHE" x="190" y="530"/>
	<anchor name="belowPrimaryHE" x="180" y="-30"/>
	<anchor name="centerHE" x="125" y="245"/>
	<anchor name="aboveLeftHE" x="25" y="530"/>
	<anchor name="belowPrimaryHECXT" x="220" y="-30"/>
</glyph>
<glyph name="heSamekh" format="2">
	<unicode hex="05E1"/>
	<advance width="642"/>
	<outline>
		<contour>
			<point x="350" y="-12" type="curve" smooth="yes"/>
			<point x="504" y="-12"/>
			<point x="614" y="122"/>
			<point x="614" y="328" type="curve" smooth="yes"/>
			<point x="614" y="495"/>
			<point x="540" y="568"/>
			<point x="312" y="568" type="curve" smooth="yes"/>
			<point x="74" y="568" type="line"/>
			<point x="74" y="396" type="line"/>
			<point x="336" y="396" type="line" smooth="yes"/>
			<point x="431" y="396"/>
			<point x="466" y="378"/>
			<point x="466" y="306" type="curve" smooth="yes"/>
			<point x="466" y="211"/>
			<point x="414" y="158"/>
			<point x="354" y="158" type="curve" smooth="yes"/>
			<point x="306" y="158"/>
			<point x="242" y="199"/>
			<point x="242" y="288" type="curve" smooth="yes"/>
			<point x="242" y="356"/>
			<point x="275" y="396"/>
			<point x="320" y="396" type="curve"/>
			<point x="320" y="468" type="line"/>
			<point x="205" y="468"/>
			<point x="94" y="372"/>
			<point x="94" y="246" type="curve" smooth="yes"/>
			<point x="94" y="90"/>
			<point x="222" y="-12"/>
		</contour>
	</outline>
	<anchor name="aboveHE" x="260" y="530"/>
	<anchor name="belowPrimaryHE" x="265" y="-30"/>
	<anchor name="centerHE" x="275" y="260"/>
	<anchor name="aboveLeftHE" x="-20" y="530"/>
</glyph>
<glyph name="heAyin" format="2">
	<unicode hex="05E2"/>
	<advance width="652"/>
	<outline>
		<contour>
			<point x="189" y="16" type="curve"/>
			<point x="332" y="42" type="line"/>
			<point x="308" y="230"/>
			<point x="242" y="444"/>
			<point x="182" y="574" type="curve"/>
			<point x="32" y="538" type="line"/>
			<point x="93" y="404"/>
			<point x="166" y="198"/>
		</contour>
		<contour>
			<point x="54" y="0" type="line"/>
			<point x="122" y="0" type="line" smooth="yes"/>
			<point x="450" y="0"/>
			<point x="594" y="193"/>
			<point x="594" y="364" type="curve" smooth="yes"/>
			<point x="594" y="506"/>
			<point x="545" y="568"/>
			<point x="396" y="568" type="curve" smooth="yes"/>
			<point x="324" y="568" type="line"/>
			<point x="324" y="396" type="line"/>
			<point x="352" y="396" type="line" smooth="yes"/>
			<point x="422" y="396"/>
			<point x="446" y="372"/>
			<point x="446" y="324" type="curve" smooth="yes"/>
			<point x="446" y="251"/>
			<point x="364" y="172"/>
			<point x="178" y="172" type="curve" smooth="yes"/>
			<point x="54" y="172" type="line"/>
		</contour>
	</outline>
	<anchor name="aboveHE" x="250" y="530"/>
	<anchor name="belowPrimaryHE" x="290" y="-30"/>
	<anchor name="aboveLeftHE" x="-10" y="530"/>
</glyph>
<glyph name="hePeFin" format="2">
	<unicode hex="05E3"/>
	<advance width="618"/>
	<outline>
		<contour>
			<point x="550" y="-200" type="line"/>
			<point x="550" y="352" type="line" smooth="yes"/>
			<point x="550" y="508"/>
			<point x="466" y="568"/>
			<point x="344" y="568" type="curve" smooth="yes"/>
			<point x="74" y="568" type="line"/>
			<point x="74" y="396" type="line"/>
			<point x="272" y="396" type="line" smooth="yes"/>
			<point x="352" y="396"/>
			<point x="402" y="368"/>
			<point x="402" y="270" type="curve" smooth="yes"/>
			<point x="402" y="-200" type="line"/>
		</contour>
		<contour>
			<point x="260" y="158" type="curve" smooth="yes"/>
			<point x="312" y="158" type="line"/>
			<point x="312" y="330" type="line"/>
			<point x="284" y="330" type="line" smooth="yes"/>
			<point x="244" y="330"/>
			<point x="230" y="339"/>
			<point x="230" y="360" type="curve" smooth="yes"/>
			<point x="230" y="380"/>
			<point x="246" y="396"/>
			<point x="272" y="396" type="curve"/>
			<point x="272" y="468" type="line"/>
			<point x="174" y="468"/>
			<point x="82" y="399"/>
			<point x="82" y="302" type="curve" smooth="yes"/>
			<point x="82" y="216"/>
			<point x="136" y="158"/>
		</contour>
	</outline>
	<anchor name="aboveHE" x="265" y="530"/>
	<anchor name="belowRightHE" x="285" y="-30"/>
	<anchor name="centerHE" x="285" y="155"/>
	<anchor name="aboveLeftHE" x="15" y="530"/>
</glyph>
<glyph name="heTsadi" format="2">
	<unicode hex="05E6"/>
	<advance width="628"/>
	<outline>
		<contour>
			<point x="44" y="0" type="line"/>
			<point x="566" y="0" type="line"/>
			<point x="596" y="172" type="line"/>
			<point x="44" y="172" type="line"/>
		</contour>
		<contour>
			<point x="466" y="80" type="curve"/>
			<point x="596" y="172" type="line"/>
			<point x="385" y="249"/>
			<point x="280" y="381"/>
			<point x="156" y="570" type="curve"/>
			<point x="26" y="478" type="line"/>
			<point x="152" y="283"/>
			<point x="259" y="152"/>
		</contour>
		<contour>
			<point x="474" y="220" type="line"/>
			<point x="568" y="300"/>
			<point x="594" y="351"/>
			<point x="594" y="414" type="curve" smooth="yes"/>
			<point x="594" y="522"/>
			<point x="540" y="568"/>
			<point x="416" y="568" type="curve" smooth="yes"/>
			<point x="324" y="568" type="line"/>
			<point x="324" y="396" type="line"/>
			<point x="352" y="396" type="line" smooth="yes"/>
			<point x="422" y="396"/>
			<point x="446" y="379"/>
			<point x="446" y="344" type="curve" smooth="yes"/>
			<point x="446" y="323"/>
			<point x="430" y="306"/>
			<point x="346" y="266" type="curve"/>
		</contour>
	</outline>
	<anchor name="aboveHE" x="245" y="530"/>
	<anchor name="belowPrimaryHE" x="255" y="-30"/>
	<anchor name="centerHE" x="85" y="235"/>
	<anchor name="aboveLeftHE" x="-5" y="530"/>
</glyph>
<glyph name="heQof" format="2">
	<unicode hex="05E7"/>
	<advance width="644"/>
	<outline>
		<contour>
			<point x="354" y="-12" type="line"/>
			<point x="543" y="104"/>
			<point x="606" y="264"/>
			<point x="606" y="428" type="curve" smooth="yes"/>
			<point x="606" y="526"/>
			<point x="554" y="568"/>
			<point x="394" y="568" type="curve" smooth="yes"/>
			<point x="34" y="568" type="line"/>
			<point x="34" y="396" type="line"/>
			<point x="358" y="396" type="line" smooth="yes"/>
			<point x="416" y="396"/>
			<point x="438" y="386"/>
			<point x="438" y="346" type="curve" smooth="yes"/>
			<point x="438" y="281"/>
			<point x="386" y="221"/>
			<point x="298" y="164" type="curve"/>
		</contour>
		<contour>
			<point x="94" y="-200" type="line"/>
			<point x="242" y="-200" type="line"/>
			<point x="242" y="316" type="line"/>
			<point x="118" y="316" type="line"/>
			<point x="104" y="272"/>
			<point x="94" y="226"/>
			<point x="94" y="166" type="curve" smooth="yes"/>
		</contour>
	</outline>
	<anchor name="aboveHE" x="275" y="530"/>
	<anchor name="belowLeftHE" x="265" y="-30"/>
	<anchor name="centerHE" x="270" y="265"/>
	<anchor name="aboveLeftHE" x="0" y="530"/>
	<anchor name="belowLeftHECXT" x="350" y="-30"/>
</glyph>
<glyph name="heResh" format="2">
	<unicode hex="05E8"/>
	<advance width="532"/>
	<outline>
		<contour>
			<point x="312" y="0" type="line"/>
			<point x="460" y="0" type="line"/>
			<point x="460" y="352" type="line" smooth="yes"/>
			<point x="460" y="508"/>
			<point x="376" y="568"/>
			<point x="254" y="568" type="curve" smooth="yes"/>
			<point x="14" y="568" type="line"/>
			<point x="14" y="396" type="line"/>
			<point x="182" y="396" type="line" smooth="yes"/>
			<point x="262" y="396"/>
			<point x="312" y="368"/>
			<point x="312" y="270" type="curve" smooth="yes"/>
		</contour>
	</outline>
	<anchor name="aboveHE" x="200" y="530"/>
	<anchor name="belowSecondaryHE" x="340" y="-30"/>
	<anchor name="centerHE" x="160" y="190"/>
	<anchor name="aboveLeftHE" x="-10" y="530"/>
</glyph>
<glyph name="heShin" format="2">
	<unicode hex="05E9"/>
	<advance width="786"/>
	<outline>
		<contour>
			<point x="376" y="-12" type="curve" smooth="yes"/>
			<point x="580" y="-12"/>
			<point x="738" y="146"/>
			<point x="738" y="364" type="curve" smooth="yes"/>
			<point x="738" y="506"/>
			<point x="689" y="568"/>
			<point x="540" y="568" type="curve" smooth="yes"/>
			<point x="518" y="568" type="line"/>
			<point x="518" y="396" type="line"/>
			<point x="536" y="396" type="line" smooth="yes"/>
			<point x="576" y="396"/>
			<point x="590" y="372"/>
			<point x="590" y="324" type="curve" smooth="yes"/>
			<point x="590" y="238"/>
			<point x="492" y="162"/>
			<point x="394" y="162" type="curve" smooth="yes"/>
			<point x="280" y="162"/>
			<point x="224" y="202"/>
			<point x="224" y="348" type="curve" smooth="yes"/>
			<point x="224" y="378" type="line"/>
			<point x="76" y="304" type="line"/>
			<point x="76" y="284" type="line" smooth="yes"/>
			<point x="76" y="70"/>
			<point x="196" y="-12"/>
		</contour>
		<contour>
			<point x="368" y="130" type="line"/>
			<point x="438" y="234"/>
			<point x="478" y="310"/>
			<point x="478" y="414" type="curve" smooth="yes"/>
			<point x="478" y="522"/>
			<point x="439" y="568"/>
			<point x="320" y="568" type="curve" smooth="yes"/>
			<point x="278" y="568" type="line"/>
			<point x="278" y="396" type="line"/>
			<point x="286" y="396" type="line" smooth="yes"/>
			<point x="334" y="396"/>
			<point x="350" y="376"/>
			<point x="350" y="334" type="curve" smooth="yes"/>
			<point x="350" y="292"/>
			<point x="324" y="240"/>
			<point x="260" y="176" type="curve"/>
		</contour>
		<contour>
			<point x="76" y="290" type="line"/>
			<point x="224" y="360" type="line"/>
			<point x="224" y="402" type="line" smooth="yes"/>
			<point x="224" y="530"/>
			<point x="158" y="568"/>
			<point x="48" y="568" type="curve" smooth="yes"/>
			<point x="4" y="568" type="line"/>
			<point x="4" y="396" type="line"/>
			<point x="16" y="396" type="line" smooth="yes"/>
			<point x="60" y="396"/>
			<point x="76" y="388"/>
			<point x="76" y="320" type="curve" smooth="yes"/>
		</contour>
	</outline>
	<anchor name="aboveHE" x="315" y="530"/>
	<anchor name="belowPrimaryHE" x="335" y="-30"/>
	<anchor name="sinHE" x="80" y="500"/>
	<anchor name="centerHE" x="400" y="260"/>
	<anchor name="shinHE" x="495" y="500"/>
	<anchor name="aboveLeftHE" x="-20" y="530"/>
</glyph>
<glyph name="heTav" format="2">
	<unicode hex="05EA"/>
	<advance width="752"/>
	<outline>
		<contour>
			<point x="54" y="0" type="line"/>
			<point x="336" y="0" type="line"/>
			<point x="318" y="130"/>
			<point x="304" y="240"/>
			<point x="304" y="332" type="curve" smooth="yes"/>
			<point x="304" y="412"/>
			<point x="320" y="483"/>
			<point x="344" y="518" type="curve"/>
			<point x="196" y="518" type="line"/>
			<point x="173" y="483"/>
			<point x="156" y="414"/>
			<point x="156" y="334" type="curve" smooth="yes"/>
			<point x="156" y="290"/>
			<point x="160" y="238"/>
			<point x="172" y="172" type="curve"/>
			<point x="54" y="172" type="line"/>
		</contour>
		<contour>
			<point x="532" y="0" type="line"/>
			<point x="680" y="0" type="line"/>
			<point x="680" y="352" type="line" smooth="yes"/>
			<point x="680" y="508"/>
			<point x="596" y="568"/>
			<point x="474" y="568" type="curve" smooth="yes"/>
			<point x="92" y="568" type="line"/>
			<point x="92" y="396" type="line"/>
			<point x="402" y="396" type="line" smooth="yes"/>
			<point x="482" y="396"/>
			<point x="532" y="368"/>
			<point x="532" y="270" type="curve" smooth="yes"/>
		</contour>
	</outline>
	<anchor name="aboveHE" x="295" y="530"/>
	<anchor name="belowPrimaryHE" x="300" y="-30"/>
	<anchor name="centerHE" x="310" y="190"/>
	<anchor name="aboveLeftHE" x="-10" y="530"/>
</glyph>
<glyph name="heDagesh.shin" format="2">
	<outline>
		<contour>
			<point x="0" y="294" type="curve" smooth="yes"/>
			<point x="-23" y="294"/>
			<point x="-44" y="276"/>
			<point x="-44" y="250" type="curve" smooth="yes"/>
			<point x="-44" y="223"/>
			<point x="-23" y="206"/>
			<point x="0" y="206" type="curve" smooth="yes"/>
			<point x="23" y="206"/>
			<point x="44" y="222"/>
			<point x="44" y="250" type="curve" smooth="yes"/>
			<point x="44" y="276"/>
			<point x="23" y="294"/>
		</contour>
	</outline>
	<anchor name="_centerHE" x="0" y="250"/>
	<guideline x="0" y="285" angle="0" identifier="WA1Ab0rsVh"/>
</glyph>
<glyph name="heHatafQamatsQatan" format="2">
	<outline>
		<contour>
			<point x="-87" y="-304" type="line"/>
			<point x="-32" y="-304" type="line"/>
			<point x="-36" y="-132" type="line"/>
			<point x="20" y="-132" type="line"/>
			<point x="20" y="-80" type="line"/>
			<point x="-141" y="-80" type="line"/>
			<point x="-141" y="-132" type="line"/>
			<point x="-83" y="-132" type="line"/>
		</contour>
		<contour>
			<point x="70" y="-144"/>
			<point x="91" y="-161"/>
			<point x="114" y="-161" type="curve" smooth="yes"/>
			<point x="137" y="-161"/>
			<point x="158" y="-145"/>
			<point x="158" y="-117" type="curve" smooth="yes"/>
			<point x="158" y="-91"/>
			<point x="137" y="-73"/>
			<point x="114" y="-73" type="curve" smooth="yes"/>
			<point x="91" y="-73"/>
			<point x="70" y="-91"/>
			<point x="70" y="-117" type="curve" smooth="yes"/>
		</contour>
		<contour>
			<point x="70" y="-270"/>
			<point x="91" y="-287"/>
			<point x="114" y="-287" type="curve" smooth="yes"/>
			<point x="137" y="-287"/>
			<point x="158" y="-271"/>
			<point x="158" y="-243" type="curve" smooth="yes"/>
			<point x="158" y="-217"/>
			<point x="137" y="-199"/>
			<point x="114" y="-199" type="curve" smooth="yes"/>
			<point x="91" y="-199"/>
			<point x="70" y="-217"/>
			<point x="70" y="-243" type="curve" smooth="yes"/>
		</contour>
	</outline>
	<anchor name="_belowPrimaryHE" x="0" y="-30"/>
	<anchor name="_belowLeftHE" x="-140" y="-30"/>
	<anchor name="belowPrimaryHE" x="-210" y="-30"/>
	<anchor name="_belowSecondaryHE" x="35" y="-30"/>
	<guideline x="-149" y="0" angle="90" identifier="Q3Ac3TMh1A"/>
</glyph>
<glyph name="hePatah.short" format="2">
	<outline>
		<contour>
			<point x="86" y="-80" type="line"/>
			<point x="-86" y="-80" type="line"/>
			<point x="-86" y="-132" type="line"/>
			<point x="86" y="-132" type="line"/>
		</contour>
	</outline>
	<anchor name="_belowPrimaryHE" x="0" y="-30"/>
	<anchor name="_belowLeftHE" x="-85" y="-30"/>
	<anchor name="_belowRightHE" x="85" y="-30"/>
	<anchor name="belowPrimaryHE" x="-155" y="-30"/>
	<anchor name="_belowSecondaryHE" x="10" y="-30"/>
</glyph>
<glyph name="pnLamd" format="2">
	<advance width="484"/>
	<outline>
		<contour>
			<point x="72" y="0" type="line"/>
			<point x="444" y="0" type="line"/>
			<point x="444" y="172" type="line"/>
			<point x="220" y="172" type="line"/>
			<point x="220" y="568" type="line"/>
			<point x="72" y="568" type="line"/>
		</contour>
	</outline>
</glyph>
<glyph name="pnMem" format="2">
	<advance width="770"/>
	<outline>
		<contour>
			<point x="358" y="0" type="line"/>
			<point x="680" y="0" type="line"/>
			<point x="684" y="68"/>
			<point x="688" y="144"/>
			<point x="688" y="200" type="curve" smooth="yes"/>
			<point x="688" y="483"/>
			<point x="598" y="580"/>
			<point x="446" y="580" type="curve" smooth="yes"/>
			<point x="233" y="580"/>
			<point x="100" y="297"/>
			<point x="100" y="0" type="curve"/>
			<point x="248" y="0" type="line"/>
			<point x="248" y="213"/>
			<point x="320" y="406"/>
			<point x="424" y="406" type="curve" smooth="yes"/>
			<point x="493" y="406"/>
			<point x="536" y="356"/>
			<point x="536" y="200" type="curve" smooth="yes"/>
			<point x="536" y="191"/>
			<point x="535" y="182"/>
			<point x="534" y="172" type="curve"/>
			<point x="394" y="172" type="line"/>
		</contour>
		<contour>
			<point x="160" y="314" type="curve"/>
			<point x="280" y="370" type="line"/>
			<point x="268" y="444"/>
			<point x="234" y="532"/>
			<point x="204" y="580" type="curve"/>
			<point x="58" y="530" type="line"/>
			<point x="100" y="474"/>
			<point x="146" y="378"/>
		</contour>
	</outline>
</glyph>
<glyph name="pnQof" format="2">
	<advance width="634"/>
	<outline>
		<contour>
			<point x="318" y="8" type="curve" smooth="yes"/>
			<point x="501" y="8"/>
			<point x="626" y="114"/>
			<point x="626" y="296" type="curve" smooth="yes"/>
			<point x="626" y="479"/>
			<point x="501" y="580"/>
			<point x="318" y="580" type="curve" smooth="yes"/>
			<point x="133" y="580"/>
			<point x="8" y="480"/>
			<point x="8" y="296" type="curve" smooth="yes"/>
			<point x="8" y="114"/>
			<point x="133" y="8"/>
		</contour>
		<contour>
			<point x="318" y="180" type="curve" smooth="yes"/>
			<point x="214" y="180"/>
			<point x="156" y="224"/>
			<point x="156" y="296" type="curve" smooth="yes"/>
			<point x="156" y="369"/>
			<point x="214" y="408"/>
			<point x="318" y="408" type="curve" smooth="yes"/>
			<point x="419" y="408"/>
			<point x="478" y="369"/>
			<point x="478" y="296" type="curve" smooth="yes"/>
			<point x="478" y="224"/>
			<point x="419" y="180"/>
		</contour>
		<contour>
			<point x="244" y="-120" type="line"/>
			<point x="392" y="-120" type="line"/>
			<point x="392" y="568" type="line"/>
			<point x="244" y="568" type="line"/>
		</contour>
	</outline>
</glyph>
<glyph name="pnSade" format="2">
	<advance width="718"/>
	<outline>
		<contour>
			<point x="38" y="0" type="line"/>
			<point x="596" y="0" type="line"/>
			<point x="626" y="172" type="line"/>
			<point x="74" y="172" type="line"/>
		</contour>
		<contour>
			<point x="496" y="80" type="curve"/>
			<point x="626" y="172" type="line"/>
			<point x="418" y="276"/>
			<point x="246" y="434"/>
			<point x="148" y="580" type="curve"/>
			<point x="18" y="488" type="line"/>
			<point x="118" y="336"/>
			<point x="292" y="178"/>
		</contour>
		<contour>
			<point x="498" y="210" type="line"/>
			<point x="571" y="297"/>
			<point x="614" y="345"/>
			<point x="614" y="433" type="curve" smooth="yes"/>
			<point x="614" y="514"/>
			<point x="576" y="567"/>
			<point x="442" y="576" type="curve" smooth="yes"/>
			<point x="384" y="580" type="line"/>
			<point x="348" y="408" type="line"/>
			<point x="392" y="404" type="line" smooth="yes"/>
			<point x="448" y="399"/>
			<point x="466" y="378"/>
			<point x="466" y="353" type="curve" smooth="yes"/>
			<point x="466" y="328"/>
			<point x="439" y="302"/>
			<point x="396" y="266" type="curve"/>
		</contour>
	</outline>
</glyph>
<glyph name="pnSemk" format="2">
	<advance width="704"/>
	<outline>
		<contour>
			<point x="278" y="-120" type="line"/>
			<point x="426" y="-120" type="line"/>
			<point x="426" y="0" type="line"/>
			<point x="650" y="0" type="line"/>
			<point x="650" y="172" type="line"/>
			<point x="426" y="172" type="line"/>
			<point x="426" y="208" type="line"/>
			<point x="630" y="208" type="line"/>
			<point x="630" y="360" type="line"/>
			<point x="426" y="360" type="line"/>
			<point x="426" y="396" type="line"/>
			<point x="650" y="396" type="line"/>
			<point x="650" y="568" type="line"/>
			<point x="54" y="568" type="line"/>
			<point x="54" y="396" type="line"/>
			<point x="278" y="396" type="line"/>
			<point x="278" y="360" type="line"/>
			<point x="74" y="360" type="line"/>
			<point x="74" y="208" type="line"/>
			<point x="278" y="208" type="line"/>
			<point x="278" y="172" type="line"/>
			<point x="54" y="172" type="line"/>
			<point x="54" y="0" type="line"/>
			<point x="278" y="0" type="line"/>
		</contour>
		<component base="Xi.sc" xOffset="100"/>
	</outline>
	<guideline x="264" y="0" angle="90" identifier="zBwTZoD6DI"/>
</glyph>
<glyph name="pnTau" format="2">
	<advance width="780"/>
	<outline>
		<contour>
			<point x="42" y="0" type="line"/>
			<point x="326" y="0" type="line"/>
			<point x="318" y="129"/>
			<point x="304" y="240"/>
			<point x="304" y="332" type="curve" smooth="yes"/>
			<point x="304" y="412"/>
			<point x="320" y="483"/>
			<point x="344" y="518" type="curve"/>
			<point x="196" y="518" type="line"/>
			<point x="173" y="483"/>
			<point x="156" y="414"/>
			<point x="156" y="334" type="curve" smooth="yes"/>
			<point x="156" y="290"/>
			<point x="158" y="237"/>
			<point x="162" y="172" type="curve"/>
			<point x="78" y="172" type="line"/>
		</contour>
		<contour>
			<point x="550" y="0" type="line"/>
			<point x="698" y="0" type="line"/>
			<point x="698" y="426" type="line" smooth="yes"/>
			<point x="698" y="519"/>
			<point x="649" y="547"/>
			<point x="572" y="552" type="curve" smooth="yes"/>
			<point x="106" y="580" type="line"/>
			<point x="70" y="408" type="line"/>
			<point x="480" y="380" type="line" smooth="yes"/>
			<point x="522" y="377"/>
			<point x="550" y="365"/>
			<point x="550" y="314" type="curve" smooth="yes"/>
		</contour>
	</outline>
</glyph>
<glyph name="pnTet" format="2">
	<advance width="626"/>
	<outline>
		<contour>
			<point x="222" y="234" type="line"/>
			<point x="406" y="234" type="line"/>
			<point x="406" y="338" type="line"/>
			<point x="222" y="338" type="line"/>
		</contour>
		<contour>
			<point x="270" y="178" type="line"/>
			<point x="358" y="178" type="line"/>
			<point x="358" y="390" type="line"/>
			<point x="270" y="390" type="line"/>
		</contour>
		<component base="pnAin"/>
	</outline>
</glyph>
<glyph name="pnYod" format="2">
	<advance width="376"/>
	<outline>
		<contour>
			<point x="82" y="224" type="line"/>
			<point x="254" y="224" type="line"/>
			<point x="254" y="348" type="line"/>
			<point x="82" y="348" type="line"/>
		</contour>
		<component base="pnZai"/>
	</outline>
</glyph>
<glyph name="pnZai" format="2">
	<advance width="483"/>
	<outline>
		<contour>
			<point x="32" y="0" type="line"/>
			<point x="512" y="0" type="line"/>
			<point x="512" y="172" type="line"/>
			<point x="264" y="172" type="line"/>
			<point x="510" y="464" type="line"/>
			<point x="510" y="568" type="line"/>
			<point x="58" y="568" type="line"/>
			<point x="58" y="396" type="line"/>
			<point x="278" y="396" type="line"/>
			<point x="32" y="104" type="line"/>
		</contour>
		<component base="Z.sc"/>
	</outline>
</glyph>
<glyph name="seven.he" format="2">
	<advance width="540"/>
	<outline>
		<contour>
			<point x="152" y="-66" type="curve"/>
			<point x="324" y="-66" type="line"/>
			<point x="336" y="181"/>
			<point x="352" y="291"/>
			<point x="498" y="462" type="curve"/>
			<point x="498" y="568" type="line"/>
			<point x="44" y="568" type="line"/>
			<point x="44" y="424" type="line"/>
			<point x="316" y="424" type="line"/>
			<point x="198" y="261"/>
			<point x="164" y="134"/>
		</contour>
	</outline>
</glyph>
<glyph name="slash.lat" format="2">
	<advance width="334"/>
	<outline>
		<contour>
			<point x="14" y="-160" type="line"/>
			<point x="124" y="-160" type="line"/>
			<point x="300" y="710" type="line"/>
			<point x="190" y="710" type="line"/>
		</contour>
	</outline>
</glyph>
